<?xml version="1.0" encoding="UTF-8"?>
<svg version="1.1" xmlns="http://www.w3.org/2000/svg" width="339" height="298">
<path d="M0 0 C2.55171782 1.08647361 5.11181441 1.66211763 7.8125 2.2890625 C16.52805881 4.40258551 24.93788393 6.82593129 31 13.8515625 C31 14.5115625 31 15.1715625 31 15.8515625 C31.66 15.8515625 32.32 15.8515625 33 15.8515625 C36.98722512 21.50509066 36.98722512 21.50509066 37.01953125 24.91015625 C36.63866299 27.10936327 36.11411286 29.20600569 35.5 31.3515625 C35.3246875 32.07214844 35.149375 32.79273438 34.96875 33.53515625 C33.47408273 39.27509374 31.34142525 44.65204181 26.9375 48.7890625 C25 49.8515625 25 49.8515625 22 49.8515625 C21.505 50.8415625 21.505 50.8415625 21 51.8515625 C20.34 51.8515625 19.68 51.8515625 19 51.8515625 C19.27714844 52.52703125 19.55429688 53.2025 19.83984375 53.8984375 C20.20207031 54.79046875 20.56429687 55.6825 20.9375 56.6015625 C21.29714844 57.48328125 21.65679687 58.365 22.02734375 59.2734375 C23.77534194 63.9066857 24.08773199 67.55478865 24 72.5390625 C23.95395511 76.59938483 23.99615488 80.41466814 24.6875 84.4140625 C26.04729554 95.35184194 20.5332386 105.64755436 15.4375 114.9140625 C14.84775391 116.01427734 14.25800781 117.11449219 13.65039062 118.24804688 C12.56488836 120.2720949 11.4731516 122.29282253 10.37280273 124.30883789 C9.2052499 126.47139574 8.08350046 128.64601552 7 130.8515625 C6.01 130.8515625 5.02 130.8515625 4 130.8515625 C4.94875 131.5734375 5.8975 132.2953125 6.875 133.0390625 C9.67412562 135.34966148 10.98517558 137.29967702 12 140.8515625 C13.258125 140.8103125 14.51625 140.7690625 15.8125 140.7265625 C24.24593829 140.70215313 32.63397773 141.88955583 41 142.8515625 C41 143.5115625 41 144.1715625 41 144.8515625 C4.37 144.8515625 -32.26 144.8515625 -70 144.8515625 C-70 144.1915625 -70 143.5315625 -70 142.8515625 C-65.80103759 142.42175945 -61.60181825 141.99458758 -57.40234375 141.56982422 C-55.9745363 141.42503521 -54.54680083 141.27953454 -53.11914062 141.13330078 C-51.06398855 140.92291961 -49.00858902 140.71512096 -46.953125 140.5078125 C-45.71723633 140.38212891 -44.48134766 140.25644531 -43.20800781 140.12695312 C-40 139.8515625 -40 139.8515625 -36 139.8515625 C-35.90912109 138.98144531 -35.90912109 138.98144531 -35.81640625 138.09375 C-35.44172465 134.60056467 -35.06455262 131.17432559 -34.375 127.7265625 C-33.92062734 124.24303881 -34.46213188 121.31782373 -35 117.8515625 C-35.08458866 115.17762093 -35.04695204 112.52782887 -35 109.8515625 C-34.34 109.5215625 -33.68 109.1915625 -33 108.8515625 C-30.96855359 109.78602785 -28.96466413 110.78381026 -27 111.8515625 C-31.33425041 107.51731209 -36.2068575 103.65788154 -41 99.8515625 C-41.99 98.8615625 -41.99 98.8615625 -43 97.8515625 C-43.90621094 98.55023438 -44.81242187 99.24890625 -45.74609375 99.96875 C-56.07449875 107.77053692 -62.31218413 110.4046679 -75.3125 109.2265625 C-76.10237305 109.15791992 -76.89224609 109.08927734 -77.70605469 109.01855469 C-81.25825682 108.60055914 -83.47019119 108.23515784 -86.40625 106.109375 C-88.1898509 103.58260706 -89.20151976 101.28133236 -90.1875 98.3515625 C-90.51105469 97.413125 -90.83460937 96.4746875 -91.16796875 95.5078125 C-93.2782796 88.77066988 -93.25771595 82.4592907 -93.3125 75.4140625 C-93.34150391 74.20556641 -93.37050781 72.99707031 -93.40039062 71.75195312 C-93.46227318 62.86466592 -93.09209124 52.45118521 -86.89770508 45.48852539 C-84.8125 43.6640625 -84.8125 43.6640625 -82.70703125 42.12109375 C-80.85952088 40.94629018 -80.85952088 40.94629018 -80 38.8515625 C-75.17237785 38.96725715 -71.94659704 39.10636909 -68.0625 42.1640625 C-66.36981356 44.36968422 -65.04433322 46.28819915 -64 48.8515625 C-66.72294063 51.57450313 -69.29135602 51.87880342 -73 52.8515625 C-74.31345624 53.22319934 -75.62601062 53.59804321 -76.9375 53.9765625 C-78.4534375 54.4096875 -78.4534375 54.4096875 -80 54.8515625 C-80.50324245 61.0719692 -78.91472794 65.18613446 -76.1875 70.7265625 C-75.65286133 71.88285156 -75.65286133 71.88285156 -75.10742188 73.0625 C-73.70380575 76.04365239 -73.70380575 76.04365239 -72 78.8515625 C-67.8423291 80.2374528 -65.91026869 78.88197583 -62.0625 77.09375 C-59.79020836 75.94496239 -59.79020836 75.94496239 -58.5 73.3515625 C-56.46283282 69.95628387 -54.21476581 68.979567 -50.61328125 67.48828125 C-46.74908527 66.54678058 -43.35620365 67.07488449 -39.48046875 67.78515625 C-36.35152889 67.86892314 -35.2616 66.92337789 -33 64.8515625 C-33.99 63.8615625 -34.98 62.8715625 -36 61.8515625 C-36.86625 62.625 -36.86625 62.625 -37.75 63.4140625 C-40 64.8515625 -40 64.8515625 -42.25 64.5390625 C-42.8275 64.3121875 -43.405 64.0853125 -44 63.8515625 C-44.0825 63.2328125 -44.165 62.6140625 -44.25 61.9765625 C-44.81258459 59.66718683 -44.81258459 59.66718683 -47.0625 58.6015625 C-47.701875 58.3540625 -48.34125 58.1065625 -49 57.8515625 C-49 57.1915625 -49 56.5315625 -49 55.8515625 C-50.32 55.8515625 -51.64 55.8515625 -53 55.8515625 C-53.04898438 55.24828125 -53.09796875 54.645 -53.1484375 54.0234375 C-53.22320312 53.22421875 -53.29796875 52.425 -53.375 51.6015625 C-53.47941406 50.41820313 -53.47941406 50.41820313 -53.5859375 49.2109375 C-54.0191595 46.74238949 -54.83451993 45.05351912 -56 42.8515625 C-57.11726818 38.7316361 -57.69431457 36.40041808 -55.93359375 32.47265625 C-52.9652305 27.76822676 -49.97961499 24.50029388 -45 21.8515625 C-44.195625 21.4184375 -43.39125 20.9853125 -42.5625 20.5390625 C-39.00425914 19.58441251 -36.56920222 19.97491634 -33 20.8515625 C-24.66587957 25.6597089 -24.66587957 25.6597089 -23.15625 30.62890625 C-22.9396875 31.67175781 -22.723125 32.71460938 -22.5 33.7890625 C-21.62863487 37.97472716 -20.67468259 40.53049828 -18 43.8515625 C-18 44.5115625 -18 45.1715625 -18 45.8515625 C-15.69 46.1815625 -13.38 46.5115625 -11 46.8515625 C-10.814375 45.7378125 -10.814375 45.7378125 -10.625 44.6015625 C-9.33775432 38.93768153 -6.81863079 36.5715281 -2.23828125 33.23046875 C-0.03621227 31.87387128 1.9885518 31.03405353 4.4375 30.2265625 C5.613125 29.7728125 6.78875 29.3190625 8 28.8515625 C8.77541497 26.82516931 8.77541497 26.82516931 9 24.8515625 C8.3503125 24.29726563 7.700625 23.74296875 7.03125 23.171875 C6.1959375 22.44742188 5.360625 21.72296875 4.5 20.9765625 C3.6646875 20.25726563 2.829375 19.53796875 1.96875 18.796875 C0.99421875 17.83394531 0.99421875 17.83394531 0 16.8515625 C0 16.1915625 0 15.5315625 0 14.8515625 C-0.5775 14.5628125 -1.155 14.2740625 -1.75 13.9765625 C-2.4925 13.6053125 -3.235 13.2340625 -4 12.8515625 C-5.0828125 12.3565625 -5.0828125 12.3565625 -6.1875 11.8515625 C-8 10.8515625 -8 10.8515625 -9 8.8515625 C-9.32871094 9.34527344 -9.65742188 9.83898438 -9.99609375 10.34765625 C-13.83495146 15.51815023 -13.83495146 15.51815023 -17.40234375 16.5390625 C-19.6188807 16.76316734 -21.77321644 16.88620136 -24 16.8515625 C-27.7264813 8.36697513 -27.7264813 8.36697513 -26 3.8515625 C-19.18516811 -2.96326939 -8.40750048 -4.16482663 0 0 Z M13 21.8515625 C13 22.5115625 13 23.1715625 13 23.8515625 C16.3 23.5215625 19.6 23.1915625 23 22.8515625 C23 22.5215625 23 22.1915625 23 21.8515625 C19.7 21.8515625 16.4 21.8515625 13 21.8515625 Z M11 22.8515625 C10.67 23.5115625 10.34 24.1715625 10 24.8515625 C10.66 24.8515625 11.32 24.8515625 12 24.8515625 C11.67 24.1915625 11.34 23.5315625 11 22.8515625 Z M21 37.8515625 C22 39.8515625 22 39.8515625 22 39.8515625 Z M22 40.8515625 C21.67 42.8315625 21.34 44.8115625 21 46.8515625 C21.99 47.3465625 21.99 47.3465625 23 47.8515625 C23 45.5415625 23 43.2315625 23 40.8515625 C22.67 40.8515625 22.34 40.8515625 22 40.8515625 Z M-33 55.8515625 C-32 57.8515625 -32 57.8515625 -32 57.8515625 Z M-2 71.8515625 C-1.34 73.1715625 -0.68 74.4915625 0 75.8515625 C0 74.8615625 0 73.8715625 0 72.8515625 C-0.66 72.5215625 -1.32 72.1915625 -2 71.8515625 Z M1 75.8515625 C1.34786708 77.82692995 1.34786708 77.82692995 2 79.8515625 C2.66 80.1815625 3.32 80.5115625 4 80.8515625 C3.34 79.2015625 2.68 77.5515625 2 75.8515625 C1.67 75.8515625 1.34 75.8515625 1 75.8515625 Z M-72 80.8515625 C-71.67 83.4915625 -71.34 86.1315625 -71 88.8515625 C-70.67 88.8515625 -70.34 88.8515625 -70 88.8515625 C-70 86.5415625 -70 84.2315625 -70 81.8515625 C-70.66 81.5215625 -71.32 81.1915625 -72 80.8515625 Z M3 81.8515625 C3.33 84.4915625 3.66 87.1315625 4 89.8515625 C4.66 89.1915625 5.32 88.5315625 6 87.8515625 C5.67801034 84.75229431 5.67801034 84.75229431 5 81.8515625 C4.34 81.8515625 3.68 81.8515625 3 81.8515625 Z M-72 88.8515625 C-71 90.8515625 -71 90.8515625 -71 90.8515625 Z M5 89.8515625 C3.90341064 93.14133058 4.20046862 94.56460017 5 97.8515625 C5.66 97.8515625 6.32 97.8515625 7 97.8515625 C7.16681109 94.93504076 7.16681109 94.93504076 7 91.8515625 C6.34 91.1915625 5.68 90.5315625 5 89.8515625 Z M-40 95.8515625 C-36 96.8515625 -36 96.8515625 -36 96.8515625 Z M5 98.8515625 C3.58435166 101.68285919 3.75775505 103.70237812 4 106.8515625 C5.39924945 110.15257381 5.39924945 110.15257381 7 112.8515625 C8.4552777 109.9410071 7.63516661 107.89307198 7.0625 104.7265625 C6.86785156 103.63085938 6.67320312 102.53515625 6.47265625 101.40625 C6.31667969 100.56320313 6.16070312 99.72015625 6 98.8515625 C5.67 98.8515625 5.34 98.8515625 5 98.8515625 Z M-25 111.8515625 C-24.67 112.5115625 -24.34 113.1715625 -24 113.8515625 C-22.68 113.5215625 -21.36 113.1915625 -20 112.8515625 C-21.65 112.5215625 -23.3 112.1915625 -25 111.8515625 Z " fill="#FDFDFD" transform="translate(205,21.1484375)"/>
<path d="M0 0 C5.47493019 3.68486606 9.23567836 7.49406394 11 14 C11.77306336 20.73669501 10.73690978 25.84195301 8 32 C7.34 32 6.68 32 6 32 C5.78601563 32.59296875 5.57203125 33.1859375 5.3515625 33.796875 C2.54893228 38.36532425 -3.17556186 40.11164669 -8 42 C-15.37600034 43.74011276 -22.69442884 40.01208679 -28.875 36.25 C-33.69113459 31.15056337 -35.263898 26.52606986 -35.5 19.5 C-35.23932652 11.99260374 -33.46308672 7.57764889 -28.3125 2.1875 C-19.32102261 -3.75026809 -9.7936806 -4.75405079 0 0 Z M-22.3125 10.6875 C-24.69049336 13.94623165 -25.17676546 17.05960332 -25 21 C-23.78437047 25.29045718 -22.61611229 27.44120048 -19.3125 30.4375 C-15.29602806 32.33206223 -12.35808003 32.859462 -8 32 C-4.59233999 30.29617 -2.61502166 29.00639908 -0.625 25.75 C0.58793836 20.41307121 0.73986098 16.63385967 -1.5 11.6875 C-4.62562834 8.32744953 -7.59575418 7.08676195 -12 6 C-15.95042018 6 -19.20890961 8.42271782 -22.3125 10.6875 Z " fill="#FCFCFC" transform="translate(157,191)"/>
<path d="M0 0 C3.0625 2.1875 3.0625 2.1875 5 4 C3.77065985 7.68802044 2.06140622 8.72356973 -1 11 C-1.495 10.71125 -1.99 10.4225 -2.5 10.125 C-7.38533703 7.92659834 -11.38566166 6.75784925 -16.75 7.5625 C-20.57950073 9.25631763 -22.03049406 10.29732884 -24 14 C-24.38731529 17.04872465 -24.27166272 19.94518039 -24 23 C-23.87625 24.4540625 -23.87625 24.4540625 -23.75 25.9375 C-23.17602882 28.16285741 -23.17602882 28.16285741 -21.0625 29.25 C-20.381875 29.4975 -19.70125 29.745 -19 30 C-18.34 30.33 -17.68 30.66 -17 31 C-15.12620395 31.07033769 -13.24998898 31.0843022 -11.375 31.0625 C-10.37210938 31.05347656 -9.36921875 31.04445312 -8.3359375 31.03515625 C-7.56507812 31.02355469 -6.79421875 31.01195312 -6 31 C-6.01160156 30.14535156 -6.02320312 29.29070312 -6.03515625 28.41015625 C-6.04417969 27.30542969 -6.05320312 26.20070312 -6.0625 25.0625 C-6.07410156 23.96035156 -6.08570312 22.85820312 -6.09765625 21.72265625 C-6 19 -6 19 -5 18 C-2.03 18 0.94 18 4 18 C4 23.94 4 29.88 4 36 C-6.03210373 41.7326307 -11.8794533 42.80879788 -23 40 C-25.51441466 38.89752588 -26.88662991 37.84242521 -29 36 C-29.721875 35.401875 -30.44375 34.80375 -31.1875 34.1875 C-35.72022746 28.71696686 -36.52062677 23.65125173 -36.2734375 16.7109375 C-35.77216361 11.74116489 -34.87959626 7.94136703 -31.3359375 4.28125 C-21.82597248 -3.4479646 -11.20208882 -5.00429762 0 0 Z " fill="#FCFCFC" transform="translate(106,191)"/>
<path d="M0 0 C10.56 0 21.12 0 32 0 C32 2.97 32 5.94 32 9 C21.605 9.495 21.605 9.495 11 10 C11 12.64 11 15.28 11 18 C17.27 18.33 23.54 18.66 30 19 C30 21.64 30 24.28 30 27 C26.69005287 28.65497356 23.00877 28.10084335 19.375 28.0625 C18.57320312 28.05798828 17.77140625 28.05347656 16.9453125 28.04882812 C14.96350994 28.03703168 12.98174567 28.01909605 11 28 C11 32.62 11 37.24 11 42 C7.37 42 3.74 42 0 42 C0 28.14 0 14.28 0 0 Z " fill="#FDFDFD" transform="translate(209,189)"/>
<path d="M0 0 C12.21 0 24.42 0 37 0 C37 2.97 37 5.94 37 9 C32.71 9 28.42 9 24 9 C24 19.89 24 30.78 24 42 C20.37 42 16.74 42 13 42 C12.67 31.44 12.34 20.88 12 10 C8.04 9.67 4.08 9.34 0 9 C0 6.03 0 3.06 0 0 Z " fill="#FDFDFD" transform="translate(273,189)"/>
<path d="M0 0 C3.3 0 6.6 0 10 0 C10 13.86 10 27.72 10 42 C6.37 42 2.74 42 -1 42 C-1.02464638 36.17928378 -1.0428343 30.35859766 -1.05493164 24.5378418 C-1.05997267 22.55606559 -1.06680538 20.57429311 -1.07543945 18.5925293 C-1.08751515 15.75047891 -1.09323045 12.90847753 -1.09765625 10.06640625 C-1.10281754 9.17474258 -1.10797882 8.28307892 -1.11329651 7.36439514 C-1.11349177 5.24259399 -1.0621003 3.1208922 -1 1 C-0.67 0.67 -0.34 0.34 0 0 Z " fill="#FEFEFE" transform="translate(253,189)"/>
<path d="M0 0 C5.94 0 11.88 0 18 0 C18 2.97 18 5.94 18 9 C12.06 9 6.12 9 0 9 C0 6.03 0 3.06 0 0 Z " fill="#FEFEFE" transform="translate(178,210)"/>
<path d="M0 0 C2.475 0.99 2.475 0.99 5 2 C5 1.34 5 0.68 5 0 C5.99 0 6.98 0 8 0 C8.74926071 3.66305234 9.2380014 6.42355152 8 10 C6.68 9.34 5.36 8.68 4 8 C3.01 8.66 2.02 9.32 1 10 C0.34 9.67 -0.32 9.34 -1 9 C-1.09765625 2.84765625 -1.09765625 2.84765625 -1 1 C-0.67 0.67 -0.34 0.34 0 0 Z " fill="#FDFDFD" transform="translate(117,256)"/>
<path d="M0 0 C0.9590625 0.2784375 0.9590625 0.2784375 1.9375 0.5625 C2.9584375 0.7790625 2.9584375 0.7790625 4 1 C4.33 0.67 4.66 0.34 5 0 C7.0625 0.4375 7.0625 0.4375 9 1 C9 3.64 9 6.28 9 9 C8.01 9.495 8.01 9.495 7 10 C6.01 9.34 5.02 8.68 4 8 C3.01 8.66 2.02 9.32 1 10 C0.34 9.34 -0.32 8.68 -1 8 C-0.96712417 5.27130593 -0.43602229 2.7033382 0 0 Z " fill="#FDFDFD" transform="translate(253,256)"/>
<path d="M0 0 C1.32 0.33 2.64 0.66 4 1 C5.69967317 1 7.35107482 0.41223129 9 0 C9 3.3 9 6.6 9 10 C7.68 9.67 6.36 9.34 5 9 C4.67 9 4.34 9 4 9 C2.68 9 1.36 9 0 9 C0 6.03 0 3.06 0 0 Z " fill="#FDFDFD" transform="translate(193,256)"/>
<path d="M0 0 C1.32 0.66 2.64 1.32 4 2 C4.33 1.34 4.66 0.68 5 0 C5.99 0 6.98 0 8 0 C9.10844919 3.32534757 8.84454356 5.62182575 8 9 C7.4225 8.79375 6.845 8.5875 6.25 8.375 C3.48032433 7.91338739 2.35438733 8.57055055 0 10 C-0.9097643 6.92954549 -1.17299981 4.20049657 -1 1 C-0.67 0.67 -0.34 0.34 0 0 Z " fill="#FDFDFD" transform="translate(176,256)"/>
<path d="M0 0 C3.0625 0.1875 3.0625 0.1875 5.0625 2.1875 C5.375 5.1875 5.375 5.1875 5.0625 8.1875 C2.0625 10.1875 2.0625 10.1875 -0.5 9.9375 C-2.9375 9.1875 -2.9375 9.1875 -4.9375 7.1875 C-4.23164336 0.2701049 -4.23164336 0.2701049 0 0 Z M-0.9375 3.1875 C-0.9375 4.5075 -0.9375 5.8275 -0.9375 7.1875 C0.0525 7.1875 1.0425 7.1875 2.0625 7.1875 C2.0625 5.8675 2.0625 4.5475 2.0625 3.1875 C1.0725 3.1875 0.0825 3.1875 -0.9375 3.1875 Z " fill="#FDFDFD" transform="translate(132.9375,255.8125)"/>
<path d="M0 0 C3.625 0.375 3.625 0.375 7 1 C7.33 2.98 7.66 4.96 8 7 C6.375 8.625 6.375 8.625 4 10 C0.75 9.1875 0.75 9.1875 -2 8 C-2.125 5.125 -2.125 5.125 -2 2 C-1.34 1.34 -0.68 0.68 0 0 Z M1 3 C1.33 4.32 1.66 5.64 2 7 C2.99 6.67 3.98 6.34 5 6 C4.67 5.01 4.34 4.02 4 3 C3.01 3 2.02 3 1 3 Z " fill="#FDFDFD" transform="translate(207,256)"/>
<path d="M0 0 C0.94875 0.04125 1.8975 0.0825 2.875 0.125 C3.78558531 3.19822544 3.96386184 5.92597361 3.875 9.125 C0.58803767 9.92453138 -0.83523192 10.22158936 -4.125 9.125 C-4.75 5.75 -4.75 5.75 -5.125 2.125 C-3.125 0.125 -3.125 0.125 0 0 Z M-2.125 3.125 C-1.795 4.445 -1.465 5.765 -1.125 7.125 C-0.465 7.125 0.195 7.125 0.875 7.125 C1.205 5.805 1.535 4.485 1.875 3.125 C0.555 3.125 -0.765 3.125 -2.125 3.125 Z " fill="#FDFDFD" transform="translate(228.125,255.875)"/>
<path d="M0 0 C0.99 0 1.98 0 3 0 C4.32 2.97 5.64 5.94 7 9 C5.01432292 8.96744792 3.02864583 8.93489583 1.04296875 8.90234375 C-1.20305461 8.91736783 -1.20305461 8.91736783 -4 10 C-3.43768609 6.06380262 -2.38314183 3.20807554 0 0 Z " fill="#FDFDFD" transform="translate(238,256)"/>
<path d="M0 0 C1.32 0.33 2.64 0.66 4 1 C7 6.03571429 7 6.03571429 7 9 C3.7 9 0.4 9 -3 9 C-2.01 6.03 -1.02 3.06 0 0 Z " fill="#FDFDFD" transform="translate(160,256)"/>
<path d="M0 0 C2.875 -0.125 2.875 -0.125 6 0 C6.66 0.66 7.32 1.32 8 2 C7.625 4.625 7.625 4.625 7 7 C5.68 7 4.36 7 3 7 C3 7.66 3 8.32 3 9 C2.01 9 1.02 9 0 9 C0 6.03 0 3.06 0 0 Z " fill="#FDFDFD" transform="translate(147,256)"/>
<path d="M0 0 C1.32 0 2.64 0 4 0 C4 2.97 4 5.94 4 9 C3.01 9.33 2.02 9.66 1 10 C-0.60725635 6.78548731 -0.05748185 3.56387464 0 0 Z " fill="#FDFDFD" transform="translate(246,256)"/>
<path d="M0 0 C0.99 0 1.98 0 3 0 C3 2.97 3 5.94 3 9 C2.01 9 1.02 9 0 9 C0 6.03 0 3.06 0 0 Z " fill="#FDFDFD" transform="translate(169,256)"/>
</svg>
